<svg width="100" height="100" viewBox="0 0 100 100" fill="none" xmlns="http://www.w3.org/2000/svg">
<rect width="100" height="100" fill="#FCFCF2"/>
<path d="M47.175 40.6724C47.4113 40.4361 47.7657 40.2589 48.0611 40.2589C48.3564 40.2589 48.6518 40.377 48.888 40.6133C49.1834 40.8496 49.3015 41.1449 49.3015 41.4994C49.3015 41.7947 49.2425 42.0901 49.0062 42.3264C45.6982 46.0478 42.5675 49.1786 39.6139 51.8368L39.5549 51.8958C38.0781 53.2545 36.4241 54.6131 34.652 55.9127C28.5086 60.5202 23.3694 62.8239 19.4117 63.4146C18.821 63.4737 18.2894 63.4737 17.7577 63.4737H16.9307C15.454 63.4146 14.0953 63.0012 13.0911 62.4104C11.3781 61.4062 10.2557 59.8704 9.78316 57.8029C9.60595 57.0941 9.54688 56.3852 9.54688 55.6173C9.54688 52.2503 10.9646 48.1153 14.0953 43.685C16.3991 40.4952 20.534 37.6007 24.0783 36.5965C24.9053 36.4193 25.7914 36.2421 26.5002 36.183H26.6183C27.0909 36.183 27.6225 36.2421 28.0951 36.3602C29.4537 36.6556 30.517 37.3644 31.2259 38.664C31.6394 39.4319 31.8756 40.4952 31.8756 41.7357C31.8756 42.7989 31.7575 43.9213 31.4031 45.2799C31.344 45.398 31.344 45.5162 31.2849 45.6343C30.8124 46.2841 30.3398 46.5795 29.8672 46.5795C29.631 46.5795 29.3356 46.5204 29.0993 46.3432C28.9812 46.2841 28.9812 46.225 28.9221 46.166C28.5677 45.8706 28.3905 45.4571 28.3314 45.0436C28.3314 44.7483 28.3314 44.2757 28.4495 43.9213C28.6268 43.4487 28.9221 43.0352 29.3947 42.7989C29.4537 42.4445 29.4537 42.0901 29.4537 41.7947C29.4537 40.9677 29.2765 40.318 29.0402 39.7863C28.7449 39.2547 28.2133 38.9003 27.5635 38.7821C27.3272 38.723 27.0318 38.664 26.7365 38.664C22.7787 39.491 18.6438 43.685 16.1037 48.2925C14.9814 50.3009 14.1544 52.4275 13.859 54.3177C13.7409 54.9675 13.6818 55.6173 13.6818 56.208C13.6818 57.2122 13.859 58.1573 14.2135 58.9253C14.9223 60.2839 16.2809 60.7565 17.8168 60.7565C19.7071 60.7565 21.8336 60.0476 23.2513 59.516C26.9728 58.1573 30.8124 55.7945 34.1794 53.1954C35.3608 52.3093 36.4832 51.3642 37.6646 50.3009L37.9009 50.0646C37.9009 50.0056 37.9599 50.0056 38.019 50.0056C40.8544 47.4065 43.9261 44.3348 47.175 40.6724Z" fill="black"/>
<path d="M45.5155 66.8998C44.4522 66.8998 43.448 65.9547 43.448 63.8872C43.448 63.0011 43.448 61.6425 43.5071 59.9885C43.8024 52.2503 45.0429 38.3686 46.2834 35.1788C46.4606 34.6472 46.9332 34.2337 47.4057 33.9974C47.7011 33.8792 48.0555 33.8202 48.3509 33.8202C50.3593 33.9383 51.7179 37.1872 51.7179 39.2547C51.7179 40.1998 51.4225 40.8496 50.7728 40.8496C50.4774 40.8496 50.0048 40.6724 49.4141 40.1407C49.296 43.2124 49.1188 45.7525 48.7644 49.0604C49.5914 46.6385 51.3044 41.9129 53.6672 40.7314C54.6124 40.0817 55.6166 39.7863 56.6208 39.7863C58.0975 39.7863 59.7515 40.4361 61.819 41.3812C66.6628 43.8622 71.5066 45.339 76.6458 45.339C78.8905 45.339 81.1942 45.0436 83.6161 44.4529C85.2111 44.0985 87.7511 42.858 88.9325 41.7357C89.2279 41.4994 89.5232 41.3812 89.8186 41.3812C90.173 41.3812 90.4684 41.4994 90.7046 41.7357C90.8819 41.9719 91 42.2082 91 42.5036C91 42.858 90.8228 43.2715 90.5865 43.5078C86.5106 47.2883 81.1942 48.8242 75.7597 48.8242C70.3252 48.8242 64.7726 47.2883 60.2832 45.0436C58.9836 44.4529 58.0385 44.0985 57.0933 44.0985H56.8571C55.971 44.1576 55.3212 44.6892 53.7263 47.1111C52.9584 48.5879 52.0133 49.8874 51.5407 51.7186C51.0681 53.6089 50.4183 55.1447 50.0048 56.9169C49.296 60.2248 48.9416 62.3514 48.6462 63.7691C48.1737 65.7184 46.756 66.8998 45.5155 66.8998Z" fill="black"/>
</svg>
