<svg width="75" height="19" viewBox="0 0 75 19" fill="none" xmlns="http://www.w3.org/2000/svg">
<path d="M7.00699 9.22901C7.05099 9.18501 7.11699 9.15201 7.17199 9.15201C7.22699 9.15201 7.28199 9.17401 7.32599 9.21801C7.38099 9.26201 7.40299 9.31701 7.40299 9.38301C7.40299 9.43801 7.39199 9.49301 7.34799 9.53701C6.73199 10.23 6.14899 10.813 5.59899 11.308L5.58799 11.319C5.31299 11.572 5.00499 11.825 4.67499 12.067C3.53099 12.925 2.57399 13.354 1.83699 13.464C1.72699 13.475 1.62799 13.475 1.52899 13.475H1.37499C1.09999 13.464 0.846991 13.387 0.659991 13.277C0.340991 13.09 0.131991 12.804 0.0439914 12.419C0.0109914 12.287 -8.62032e-06 12.155 -8.62032e-06 12.012C-8.62032e-06 11.385 0.263991 10.615 0.846991 9.79001C1.27599 9.19601 2.04599 8.65701 2.70599 8.47001C2.85999 8.43701 3.02499 8.40401 3.15699 8.39301H3.17899C3.26699 8.39301 3.36599 8.40401 3.45399 8.42601C3.70699 8.48101 3.90499 8.61301 4.03699 8.85501C4.11399 8.99801 4.15799 9.19601 4.15799 9.42701C4.15799 9.62501 4.13599 9.83401 4.06999 10.087C4.05899 10.109 4.05899 10.131 4.04799 10.153C3.95999 10.274 3.87199 10.329 3.78399 10.329C3.73999 10.329 3.68499 10.318 3.64099 10.285C3.61899 10.274 3.61899 10.263 3.60799 10.252C3.54199 10.197 3.50899 10.12 3.49799 10.043C3.49799 9.98801 3.49799 9.90001 3.51999 9.83401C3.55299 9.74601 3.60799 9.66901 3.69599 9.62501C3.70699 9.55901 3.70699 9.49301 3.70699 9.43801C3.70699 9.28401 3.67399 9.16301 3.62999 9.06401C3.57499 8.96501 3.47599 8.89901 3.35499 8.87701C3.31099 8.86601 3.25599 8.85501 3.20099 8.85501C2.46399 9.00901 1.69399 9.79001 1.22099 10.648C1.01199 11.022 0.857991 11.418 0.802991 11.77C0.780991 11.891 0.769991 12.012 0.769991 12.122C0.769991 12.309 0.802991 12.485 0.868991 12.628C1.00099 12.881 1.25399 12.969 1.53999 12.969C1.89199 12.969 2.28799 12.837 2.55199 12.738C3.24499 12.485 3.95999 12.045 4.58699 11.561C4.80699 11.396 5.01599 11.22 5.23599 11.022L5.27999 10.978C5.27999 10.967 5.29099 10.967 5.30199 10.967C5.82999 10.483 6.40199 9.91101 7.00699 9.22901ZM16.4194 13.189C16.1994 13.189 16.1114 12.87 16.1114 11.946C16.1114 10.934 16.1664 9.35001 16.2764 8.30501C15.1654 9.70201 13.4494 11.484 11.8324 12.243H11.8214C11.3924 12.452 10.9414 12.573 10.5014 12.573C9.59938 12.573 8.76338 12.067 8.31238 10.747C8.03738 11.022 7.77338 11.187 7.48738 11.451C6.75038 12.1 6.23338 12.375 5.88138 12.375C5.49638 12.375 5.32038 12.122 5.32038 11.748C5.32038 10.747 6.61838 8.66801 8.24638 8.66801C8.56538 8.66801 9.15938 8.74501 9.15938 9.02001C9.15938 9.17401 9.00538 9.35001 8.84038 9.35001C8.75238 9.35001 8.69738 9.32801 8.59838 9.32801C7.56438 9.32801 6.15638 10.736 6.00238 11.627L5.98038 11.803L5.99138 11.902C6.34338 11.825 6.88238 11.385 7.80638 10.549C8.01538 10.34 8.23538 10.109 8.45538 9.85601C8.51038 9.80101 8.57638 9.76801 8.64238 9.76801C8.75238 9.76801 8.86238 9.85601 8.86238 9.98801C8.86238 10.032 8.88438 10.043 8.88438 10.12C9.19238 11.561 9.77538 12.1 10.5454 12.1C10.8754 12.1 11.2384 12.001 11.6124 11.836C11.6234 11.836 11.6344 11.836 11.6344 11.825C13.4824 11.022 15.7704 8.31601 16.4524 7.29301C16.5184 7.13901 16.6944 7.10601 16.8704 7.10601C17.1564 7.15 17.3324 7.24901 17.3324 7.53501C17.2224 8.04101 17.1344 8.83301 17.0464 9.63601C17.1234 9.41601 17.2114 9.20701 17.2994 9.00901C17.6624 8.23901 18.1904 8.00801 18.7734 8.00801C19.5764 8.00801 20.5334 8.43701 21.2154 8.43701C21.4794 8.43701 21.6994 8.37101 21.8754 8.20601C21.9194 8.16201 21.9744 8.14001 22.0404 8.14001C22.1614 8.14001 22.2714 8.25001 22.2714 8.36001C22.2714 8.42601 22.2494 8.48101 22.1944 8.52501C21.9194 8.80001 21.5894 8.89901 21.2264 8.89901C20.4564 8.89901 19.5654 8.48101 18.8394 8.48101C18.3774 8.48101 17.9704 8.64601 17.7174 9.19601C17.0134 10.725 16.8374 13.189 16.4194 13.189ZM24.1956 8.47001C25.9116 7.86501 27.5506 6.62201 28.8926 5.19201C30.2676 3.71801 31.3126 2.04601 31.7306 0.638005C31.7636 0.517004 31.7856 0.407005 31.8186 0.297005C31.8736 0.0880054 32.0056 5.24521e-06 32.1486 5.24521e-06C32.3246 5.24521e-06 32.5006 0.143005 32.5006 0.407005C32.5006 0.429004 32.4896 0.462005 32.4896 0.495005C31.5106 5.41201 30.8286 11 30.7626 14.487C30.7626 14.652 30.7516 14.817 30.7516 14.982C30.7516 15.752 30.7956 16.401 30.8726 16.885C30.9496 17.38 31.0486 17.655 31.1586 17.688H31.1696C31.2796 17.688 31.4116 17.688 31.4776 17.82C31.4996 17.853 31.5106 17.897 31.5106 17.93C31.5106 18.106 31.2686 18.238 31.0046 18.238C30.8396 18.238 30.6856 18.194 30.5536 18.084C30.3446 17.908 30.1906 17.567 30.0916 17.061C29.9706 16.401 29.9156 15.51 29.9156 14.465C29.9156 13.035 30.0146 11.319 30.2016 9.50401C30.4216 7.31501 30.7736 4.99401 31.2136 2.882C30.6856 3.77301 30.0036 4.675 29.2226 5.51101C27.9796 6.853 26.4396 8.03001 24.8336 8.71201C24.9106 8.77801 24.9656 8.84401 25.0316 8.92101C25.2076 9.16301 25.3506 9.48201 25.4276 9.84501C25.4496 9.91101 25.4606 9.98801 25.4716 10.054C25.5156 10.296 25.5376 10.549 25.5376 10.802C25.5376 11.187 25.4826 11.583 25.3726 11.924C25.1746 12.54 24.8006 13.024 24.2396 13.156H24.2286C24.1956 13.167 24.1846 13.178 24.1516 13.178C24.0746 13.189 23.9866 13.2 23.9206 13.2C23.4586 13.2 23.1396 12.947 22.9526 12.54C22.8096 12.243 22.7436 11.836 22.7326 11.418C22.7326 11.011 22.7876 10.571 22.8976 10.164C23.1286 9.25101 23.6016 8.49201 24.1956 8.47001ZM24.3056 8.94301C24.2396 9.02001 24.1626 9.14101 24.0856 9.27301C23.8436 9.73501 23.6456 10.439 23.5686 11.121C23.5576 11.253 23.5356 11.495 23.5356 11.737C23.5356 12.21 23.6126 12.727 24.0086 12.727C24.0526 12.727 24.0856 12.727 24.1296 12.716C24.5146 12.617 24.7786 12.254 24.9326 11.792C25.0316 11.484 25.0756 11.143 25.0756 10.802C25.0756 10.571 25.0646 10.351 25.0206 10.142C25.0096 10.076 24.9986 10.01 24.9766 9.94401C24.9106 9.64701 24.8006 9.38301 24.6576 9.19601C24.5586 9.06401 24.4486 8.97601 24.3056 8.94301ZM39.2468 14.113C39.0488 14.113 38.8618 13.937 38.8618 13.552C38.8618 13.387 38.8618 13.134 38.8728 12.826C38.9278 11.385 39.1588 8.80001 39.3898 8.20601C39.4228 8.10701 39.5108 8.03001 39.5988 7.98601C39.6538 7.964 39.7198 7.95301 39.7748 7.95301C40.1488 7.97501 40.4018 8.58001 40.4018 8.96501C40.4018 9.14101 40.3468 9.26201 40.2258 9.26201C40.1708 9.26201 40.0828 9.22901 39.9728 9.13001C39.9508 9.70201 39.9178 10.175 39.8518 10.791C40.0058 10.34 40.3248 9.46001 40.7648 9.24001C40.9408 9.11901 41.1278 9.06401 41.3148 9.06401C41.5898 9.06401 41.8978 9.18501 42.2828 9.36101C43.1848 9.82301 44.0868 10.098 45.0438 10.098C45.4618 10.098 45.8908 10.043 46.3418 9.93301C46.6388 9.86701 47.1118 9.63601 47.3318 9.42701C47.3868 9.38301 47.4418 9.36101 47.4968 9.36101C47.5628 9.36101 47.6178 9.38301 47.6618 9.42701C47.6948 9.47101 47.7168 9.51501 47.7168 9.57001C47.7168 9.63601 47.6838 9.71301 47.6398 9.75701C46.8808 10.461 45.8908 10.747 44.8788 10.747C43.8668 10.747 42.8328 10.461 41.9968 10.043C41.7548 9.93301 41.5788 9.86701 41.4028 9.86701H41.3588C41.1938 9.87801 41.0728 9.97701 40.7758 10.428C40.6328 10.703 40.4568 10.945 40.3688 11.286C40.2808 11.638 40.1598 11.924 40.0828 12.254C39.9508 12.87 39.8848 13.266 39.8298 13.53C39.7418 13.893 39.4778 14.113 39.2468 14.113ZM51.607 12.397C51.453 12.397 51.31 12.386 51.167 12.375C50.463 12.298 49.935 12.034 49.561 11.682C49.198 11.341 48.978 10.923 48.912 10.516C48.802 10.626 48.703 10.736 48.593 10.835C48.373 11.044 48.153 11.242 47.955 11.418C47.218 12.067 46.712 12.331 46.371 12.342H46.349C45.975 12.342 45.799 12.1 45.799 11.715C45.799 11.605 45.81 11.484 45.843 11.352C45.942 10.901 46.228 10.329 46.624 9.82301C47.163 9.17401 47.9 8.63501 48.714 8.63501C48.967 8.63501 49.231 8.67901 49.495 8.80001C49.638 8.85501 49.715 8.98701 49.715 9.10801C49.715 9.29501 49.583 9.47101 49.363 9.47101L49.264 9.46001C49.121 9.43801 48.967 9.41601 48.802 9.41601C48.604 9.41601 48.395 9.44901 48.186 9.55901C47.779 9.79001 47.383 10.142 47.064 10.516C46.756 10.89 46.536 11.275 46.47 11.594L46.448 11.759L46.459 11.869C46.712 11.814 47.097 11.572 47.647 11.077C47.845 10.901 48.054 10.714 48.274 10.505C48.494 10.307 48.703 10.076 48.934 9.81201C48.978 9.76801 49.044 9.73501 49.11 9.73501C49.165 9.73501 49.209 9.75701 49.253 9.79001C49.297 9.83401 49.33 9.88901 49.341 9.94401L49.352 10.032C49.352 10.043 49.352 10.054 49.363 10.065C49.473 10.549 49.726 11.077 50.166 11.44C50.529 11.748 51.024 11.935 51.695 11.935C51.838 11.935 51.948 11.935 52.102 11.913H52.135C52.212 11.902 52.3 11.891 52.388 11.869H52.421C53.004 11.759 53.554 11.506 54.17 11.077C54.819 10.659 55.545 10.043 56.469 9.22901C56.513 9.18501 56.568 9.17401 56.623 9.17401C56.689 9.17401 56.755 9.19601 56.799 9.25101C56.832 9.29501 56.854 9.35001 56.854 9.40501C56.854 9.46001 56.821 9.52601 56.777 9.57001C55.842 10.395 55.105 11.011 54.434 11.462C53.741 11.924 53.147 12.188 52.498 12.309L52.476 12.32C52.366 12.342 52.267 12.353 52.179 12.364H52.157C51.959 12.386 51.783 12.397 51.607 12.397ZM62.007 9.22901C62.051 9.18501 62.117 9.15201 62.172 9.15201C62.227 9.15201 62.282 9.17401 62.326 9.21801C62.381 9.26201 62.403 9.31701 62.403 9.38301C62.403 9.43801 62.392 9.49301 62.348 9.53701C61.732 10.23 61.149 10.813 60.599 11.308L60.588 11.319C60.313 11.572 60.005 11.825 59.675 12.067C58.531 12.925 57.574 13.354 56.837 13.464C56.727 13.475 56.628 13.475 56.529 13.475H56.375C56.1 13.464 55.847 13.387 55.66 13.277C55.341 13.09 55.132 12.804 55.044 12.419C55.011 12.287 55 12.155 55 12.012C55 11.385 55.264 10.615 55.847 9.79001C56.276 9.19601 57.046 8.65701 57.706 8.47001C57.86 8.43701 58.025 8.40401 58.157 8.39301H58.179C58.267 8.39301 58.366 8.40401 58.454 8.42601C58.707 8.48101 58.905 8.61301 59.037 8.85501C59.114 8.99801 59.158 9.19601 59.158 9.42701C59.158 9.62501 59.136 9.83401 59.07 10.087C59.059 10.109 59.059 10.131 59.048 10.153C58.96 10.274 58.872 10.329 58.784 10.329C58.74 10.329 58.685 10.318 58.641 10.285C58.619 10.274 58.619 10.263 58.608 10.252C58.542 10.197 58.509 10.12 58.498 10.043C58.498 9.98801 58.498 9.90001 58.52 9.83401C58.553 9.74601 58.608 9.66901 58.696 9.62501C58.707 9.55901 58.707 9.49301 58.707 9.43801C58.707 9.28401 58.674 9.16301 58.63 9.06401C58.575 8.96501 58.476 8.89901 58.355 8.87701C58.311 8.86601 58.256 8.85501 58.201 8.85501C57.464 9.00901 56.694 9.79001 56.221 10.648C56.012 11.022 55.858 11.418 55.803 11.77C55.781 11.891 55.77 12.012 55.77 12.122C55.77 12.309 55.803 12.485 55.869 12.628C56.001 12.881 56.254 12.969 56.54 12.969C56.892 12.969 57.288 12.837 57.552 12.738C58.245 12.485 58.96 12.045 59.587 11.561C59.807 11.396 60.016 11.22 60.236 11.022L60.28 10.978C60.28 10.967 60.291 10.967 60.302 10.967C60.83 10.483 61.402 9.91101 62.007 9.22901ZM61.544 15.928C61.445 15.928 61.357 15.873 61.324 15.675V15.235C61.324 14.916 61.335 14.432 61.357 13.86C61.456 10.956 61.764 5.423 62.358 2.838C62.413 2.673 62.556 1.364 62.952 1.364H62.963C63.095 1.364 63.183 1.419 63.238 1.51801C63.293 1.606 63.304 1.727 63.304 1.87C63.304 2.25501 63.15 2.75 63.15 2.86001L63.139 2.948C62.963 3.663 62.754 5.35701 62.556 7.28201C62.358 9.20701 62.182 11.352 62.072 12.925C62.556 11.605 63.161 10.45 63.722 9.75701C64.019 9.39401 64.316 9.14101 64.602 9.03101C64.712 8.99801 64.811 8.97601 64.91 8.97601C65.13 8.97601 65.328 9.06401 65.504 9.27301C65.779 9.61401 65.966 10.274 66.01 11.363C66.032 11.869 66.098 12.364 66.186 12.76C66.241 12.98 66.318 13.167 66.395 13.288C66.439 13.365 66.483 13.398 66.516 13.398L66.582 13.387C66.692 13.387 66.78 13.464 66.813 13.563L66.824 13.618C66.824 13.717 66.736 13.805 66.637 13.838C66.615 13.849 66.582 13.86 66.538 13.86C66.318 13.86 66.186 13.684 66.054 13.464C65.713 12.947 65.581 11.979 65.559 11.385C65.515 10.406 65.361 9.82301 65.152 9.57001C65.075 9.48201 64.998 9.43801 64.91 9.43801C64.866 9.43801 64.811 9.44901 64.767 9.47101C64.569 9.53701 64.327 9.74601 64.074 10.054C63.194 11.132 62.237 13.365 61.797 15.62H61.786L61.797 15.664L61.786 15.763C61.775 15.774 61.764 15.785 61.764 15.818C61.731 15.873 61.632 15.928 61.544 15.928ZM68.746 13.09H68.658C68.229 13.09 67.789 12.969 67.569 12.749H67.558C67.206 12.463 67.096 12.166 67.074 11.671C67.074 11.429 67.118 11.165 67.217 10.879C67.085 10.879 66.986 10.78 66.986 10.648C66.986 10.538 67.085 10.439 67.195 10.428L67.415 10.395C67.624 9.98801 67.932 9.54801 68.35 9.10801C68.647 8.80001 68.999 8.59101 69.186 8.59101C69.582 8.59101 69.791 8.76701 69.791 9.16301C69.791 9.63601 69.296 10.395 68.042 10.736C67.91 11.077 67.855 11.363 67.855 11.594C67.855 12.21 68.284 12.441 68.845 12.441C69.45 12.441 70.209 12.188 70.792 11.869C70.891 11.869 72.156 11.088 72.31 10.967C72.343 10.956 72.332 10.967 72.343 10.934C72.937 10.483 73.564 9.92201 74.224 9.25101C74.268 9.19601 74.334 9.17401 74.389 9.17401C74.521 9.17401 74.62 9.28401 74.62 9.40501C74.62 9.46001 74.598 9.52601 74.554 9.57001C73.883 10.252 73.234 10.824 72.629 11.286L72.618 11.308C71.683 12.078 70.671 12.694 69.703 12.925C69.351 13.035 69.032 13.09 68.746 13.09ZM68.295 10.175C68.988 9.90001 69.34 9.44901 69.34 9.17401L69.329 9.09701C69.329 9.06401 69.307 9.05301 69.274 9.04201C68.955 9.13001 68.647 9.51501 68.295 10.175Z" fill="black"/>
</svg>
